<?xml version="1.0" encoding="utf-8"?>
<svg version="1.1" xmlns:xlink="http://www.w3.org/1999/xlink" width="18px" height="18px" xmlns="http://www.w3.org/2000/svg">
  <g transform="matrix(1 0 0 1 -375 -58 )">
    <path d="M 17.5889467773437 17.62254328125  C 17.8442801953125 17.3873677148437  17.8577187890625 16.9909289453125  17.6225432617188 16.73895515625  L 14.6425331835938 13.5506467382812  C 15.8520074023437 12.0959180273437  16.5138585742188 10.2817066992188  16.5138585742188 8.37342517578125  C 16.5138585742188 3.8950109375  12.8686376757813 0.249790039062501  8.3868637890625 0.249790039062501  C 3.90844955078125 0.249790039062501  0.263228652343751 3.8950109375  0.263228652343751 8.37342517578125  C 0.263228652343751 12.8518394140625  3.90844955078125 16.4970603125  8.3868637890625 16.4970603125  C 9.55938185546875 16.4970603125  10.6915841015625 16.2518058203125  11.7498740429687 15.7680161328125  C 12.0656811914062 15.6235511523438  12.203426875 15.2539895898438  12.0589618945312 14.9415420898438  C 11.9144969140625 14.6257349414063  11.5449353515625 14.4879892578125  11.2324878515625 14.6324542382813  C 10.3354611328125 15.038971953125  9.37796072265625 15.2472702929688  8.3868637890625 15.2472702929688  C 4.59717791015625 15.2472702929688  1.513018671875 12.1631110546875  1.513018671875 8.37342517578125  C 1.513018671875 4.583739296875  4.59717791015625 1.49958005859375  8.3868637890625 1.49958005859375  C 12.1765496679687 1.49958005859375  15.26070890625 4.583739296875  15.26070890625 8.37342517578125  C 15.26070890625 10.1573996484375  14.57869984375 11.8473038867188  13.3457080664062 13.134050078125  C 13.1071728710937 13.38266421875  13.1138921679687 13.7791029882813  13.362506328125 14.0176381835938  C 13.3826642382812 14.0344364453125  13.4061817773437 14.0411557421875  13.4263396875 14.057953984375  C 13.4431379492187 14.0814715429688  13.4532168945312 14.1117083984375  13.4733748046875 14.1352259570313  L 16.705358671875 17.5923064257813  C 16.82630609375 17.7233327929688  16.9942886328125 17.7905258203125  17.1622711523437 17.7905258203125  C 17.316815078125 17.7905258203125  17.4679993554687 17.7334117578125  17.5889467773437 17.62254328125  Z " fill-rule="nonzero" fill="#0000ff" stroke="none" transform="matrix(1 0 0 1 375 58 )" />
  </g>
</svg>