<?xml version="1.0" encoding="utf-8"?>
<svg version="1.1" xmlns:xlink="http://www.w3.org/1999/xlink" width="50px" height="50px" xmlns="http://www.w3.org/2000/svg">
  <g transform="matrix(1 0 0 1 -210 -2045 )">
    <path d="M 43.7500574707031 9.375  L 36.1782184082031 9.375  L 37.4282184082031 6.25  L 43.75 6.25  C 47.2017815917969 6.25  50 9.04821840820313  50 12.5  L 50 37.5  C 50 40.4378735839844  47.9729885253906 42.902298828125  45.2412068847656 43.5709770019531  L 45.3124712402344 43  L 22.4282758789063 43  L 23.6782758789063 40.625  L 25.3649425292969 40.625  L 24.602298828125 38.315  L 26.4051724121094 33.8078161132812  L 28.2710919433594 39.4597126464844  L 31.582701171875 31.1441954101563  C 32.5405172851562 28.7390229980469  35.2667241699219 27.5658045898438  37.6718390625 28.523620703125  C 38.8682554601947 29.0000809428778  39.8159535297784 29.9477790124615  40.2924137695313 31.1441954101563  L 44.0619540039063 40.6096551757812  C 45.641379296875 40.4531034667969  46.8750574707031 39.1206321777344  46 37.5  L 46 12.5  C 46.8750574707031 10.7741379394531  45.47591953125 9.375  43.7500574707031 9.375  Z M 27.5717815917969 7  L 26.3217815917969 10  L 6.25 10  C 4.52413793945313 9.375  3.125 10.7741379394531  4 12.5  L 4 37.5  C 3.125 39.0498850585937  4.25327587890625 40.3362068847656  5.73327587890625 40.5824712402344  L 11.2525862304688 23.8648275878906  C 12.3347701171875 20.5870689453125  15.8691379394531 18.8071838867187  19.1468965332031 19.8893103515625  C 20.0427044278345 20.1849703817993  20.8599245791841 20.6796605026921  21.5372413574219 21.3362643554687  L 20.1454022949219 24.8159770019531  C 19.8294310968676 23.8890276154427  19.0971916118992 23.1638084429833  18.1672413574219 22.8567815917969  C 16.5283333007812 22.3156896484375  14.7610919433594 23.2056321777344  14.2200574707031 24.844540234375  L 9.01011494140625 40.625  L 13.8218390625 40.625  L 12.5718390625 43.75  L 4.68752875976563 43.75  L 4.74752875976563 43.5682184082031  C 2.02143676757813 42.8955172363281  0 40.4337931152344  0 37.5  L 0 12.5  C 0 9.04821840820313  2.79821840820313 6.25  6.25 7  L 27.5717815917969 7  Z M 42.9687931152344 17.1875287597656  C 42.9687931152344 19.3448850585938  41.2198850585938 21.0937356445313  39.0624712402344 21.0937356445313  C 36.9051149414063 21.0937356445313  35.1562643554688 19.3448850585938  35.1562643554688 17.1874712402344  C 35.1562643554688 15.0301149414063  36.9051149414063 13.2812643554687  39.0624712402344 13.2812643554687  C 41.2198850097656 13.2812643554687  42.9687930664062 15.0301149414063  42.9687931152344 17.1875287597656  Z M 40.7043103515625 40.625  L 37.3891379394531 32.3004022949219  C 37.2303197377094 31.9015735054533  36.9144034964998 31.5856572642437  36.5155747070312 31.4268390625  C 35.7138505859375 31.1075861816406  34.8051724121094 31.498678125  34.4858620605469 32.3004022949219  L 31.1706896484375 40.625  L 40.7043103515625 40.625  Z M 17.1875287597656 48.4375287597656  C 17.1875287597656 49.3004598144531  16.4879310546875 50  15.625 50  C 14.7620689453125 50  14.0624712402344 49.300459765625  14.0624712402344 48.4374712402344  C 14.0624712402344 48.0197125976563  14.2264367675781 47.6402298828125  14.4935057617188 47.3598850585937  L 32.8124712402344 1.56247124023438  C 32.8125287597656 0.699540234375  33.5120689453125 0  34.375 0  C 35.2379310546875 0  35.9375287597656 0.699540234375  35.9375287597656 1.56252875976563  C 35.9375287597656 1.98028740234375  35.7735632324219 2.3597701171875  35.5064942382812 2.64011494140625  L 17.1875287597656 48.4375287597656  Z " fill-rule="nonzero" fill="#aaaaaa" stroke="none" transform="matrix(1 0 0 1 210 2045 )" />
  </g>
</svg>