<?xml version="1.0" encoding="utf-8"?>
<svg version="1.1" xmlns:xlink="http://www.w3.org/1999/xlink" width="12px" height="12px" viewBox="245 173.5  12 12" xmlns="http://www.w3.org/2000/svg">
  <path d="M 251 173.5  C 254.36 173.5  257 176.14  257 179.5  C 257 182.86  254.36 185.5  251 185.5  C 247.64 185.5  245 182.86  245 179.5  C 245 176.14  247.64 173.5  251 173.5  Z " fill-rule="nonzero" fill="#f0f0f0" stroke="none" />
  <path d="M 251 174  C 254.08 174  256.5 176.42  256.5 179.5  C 256.5 182.58  254.08 185  251 185  C 247.92 185  245.5 182.58  245.5 179.5  C 245.5 176.42  247.92 174  251 174  Z " stroke-width="1" stroke="#797979" fill="none" />
  <path d="M 251 182.5  C 249.32 182.5  248 181.18  248 179.5  C 248 177.82  249.32 176.5  251 176.5  C 252.68 176.5  254 177.82  254 179.5  C 254 181.18  252.68 182.5  251 182.5  " fill-rule="nonzero" fill="#797979" stroke="none" />
</svg>