<?xml version="1.0" encoding="utf-8"?>
<svg version="1.1" xmlns:xlink="http://www.w3.org/1999/xlink" width="12px" height="12px" viewBox="226 173.5  12 12" xmlns="http://www.w3.org/2000/svg">
  <path d="M 232 173.5  C 235.36 173.5  238 176.14  238 179.5  C 238 182.86  235.36 185.5  232 185.5  C 228.64 185.5  226 182.86  226 179.5  C 226 176.14  228.64 173.5  232 173.5  Z " fill-rule="nonzero" fill="#ffffff" stroke="none" />
  <path d="M 232 174  C 235.08 174  237.5 176.42  237.5 179.5  C 237.5 182.58  235.08 185  232 185  C 228.92 185  226.5 182.58  226.5 179.5  C 226.5 176.42  228.92 174  232 174  Z " stroke-width="1" stroke="#797979" fill="none" />
  <path d="M 232 182.5  C 230.32 182.5  229 181.18  229 179.5  C 229 177.82  230.32 176.5  232 176.5  C 233.68 176.5  235 177.82  235 179.5  C 235 181.18  233.68 182.5  232 182.5  " fill-rule="nonzero" fill="#797979" stroke="none" />
</svg>