<?xml version="1.0" encoding="utf-8"?>
<svg version="1.1" xmlns:xlink="http://www.w3.org/1999/xlink" width="12px" height="12px" viewBox="299 173.5  12 12" xmlns="http://www.w3.org/2000/svg">
  <path d="M 305 173.5  C 308.36 173.5  311 176.14  311 179.5  C 311 182.86  308.36 185.5  305 185.5  C 301.64 185.5  299 182.86  299 179.5  C 299 176.14  301.64 173.5  305 173.5  Z " fill-rule="nonzero" fill="#f0f0f0" stroke="none" />
  <path d="M 305 174  C 308.08 174  310.5 176.42  310.5 179.5  C 310.5 182.58  308.08 185  305 185  C 301.92 185  299.5 182.58  299.5 179.5  C 299.5 176.42  301.92 174  305 174  Z " stroke-width="1" stroke="#797979" fill="none" />
  <path d="M 305 182.5  C 303.32 182.5  302 181.18  302 179.5  C 302 177.82  303.32 176.5  305 176.5  C 306.68 176.5  308 177.82  308 179.5  C 308 181.18  306.68 182.5  305 182.5  " fill-rule="nonzero" fill="#797979" stroke="none" />
</svg>