<?xml version="1.0" encoding="utf-8"?>
<svg version="1.1" xmlns:xlink="http://www.w3.org/1999/xlink" width="90px" height="10px" preserveAspectRatio="xMinYMid meet" viewBox="195 2065  90 8" xmlns="http://www.w3.org/2000/svg">
  <defs>
    <mask fill="white" id="clip279">
      <path d="M 170.5 1983  L 229.5 1983  L 229.5 2008  L 170.5 2008  Z M 170.5 1910  L 290 1910  L 290 2090  L 170.5 2090  Z " fill-rule="evenodd" />
    </mask>
  </defs>
  <path d="M 280 1910  L 280 1914  A 5 5 0 0 1 275 1919 L 205 1919  A 5 5 0 0 0 200 1924 L 200 2064  A 5 5 0 0 0 205 2069 L 275 2069  A 5 5 0 0 1 280 2074 L 280 2074  " stroke-width="2" stroke="#d9001b" fill="none" mask="url(#clip279)" />
  <path d="M 272.4 2073  L 280 2080  L 287.6 2073  L 272.4 2073  Z " fill-rule="nonzero" fill="#d9001b" stroke="none" mask="url(#clip279)" />
</svg>