<?xml version="1.0" encoding="utf-8"?>
<svg version="1.1" xmlns:xlink="http://www.w3.org/1999/xlink" width="20px" height="20px" preserveAspectRatio="xMinYMid meet" viewBox="270 2996  20 18" xmlns="http://www.w3.org/2000/svg">
  <defs>
    <mask fill="white" id="clip1045">
      <path d="M 170.5 2907  L 229.5 2907  L 229.5 2932  L 170.5 2932  Z M 170.5 2830  L 290 2830  L 290 3020  L 170.5 3020  Z " fill-rule="evenodd" />
    </mask>
  </defs>
  <path d="M 280 2830  L 280 2835  A 5 5 0 0 1 275 2840 L 205 2840  A 5 5 0 0 0 200 2845 L 200 2995  A 5 5 0 0 0 205 3000 L 275 3000  A 5 5 0 0 1 280 3005 " stroke-width="2" stroke="#d9001b" fill="none" mask="url(#clip1045)" />
  <path d="M 272.4 3003  L 280 3010  L 287.6 3003  L 272.4 3003  Z " fill-rule="nonzero" fill="#d9001b" stroke="none" mask="url(#clip1045)" />
</svg>