<?xml version="1.0" encoding="utf-8"?>
<svg version="1.1" xmlns:xlink="http://www.w3.org/1999/xlink" width="10px" height="160px" preserveAspectRatio="xMidYMin meet" viewBox="196 2605  8 160" xmlns="http://www.w3.org/2000/svg">
  <defs>
    <mask fill="white" id="clip44">
      <path d="M 170.5 2673  L 229.5 2673  L 229.5 2698  L 170.5 2698  Z M 170.5 2600  L 290 2600  L 290 2780  L 170.5 2780  Z " fill-rule="evenodd" />
    </mask>
  </defs>
  <path d="M 280 2600  L 280 2605  A 5 5 0 0 1 275 2610 L 205 2610  A 5 5 0 0 0 200 2615 L 200 2755  A 5 5 0 0 0 205 2760 L 275 2760  A 5 5 0 0 1 280 2765 " stroke-width="2" stroke="#d9001b" fill="none" mask="url(#clip44)" />
  <path d="M 272.4 2763  L 280 2770  L 287.6 2763  L 272.4 2763  Z " fill-rule="nonzero" fill="#d9001b" stroke="none" mask="url(#clip44)" />
</svg>