<?xml version="1.0" encoding="utf-8"?>
<svg version="1.1" xmlns:xlink="http://www.w3.org/1999/xlink" width="80px" height="38px" xmlns="http://www.w3.org/2000/svg">
  <g transform="matrix(1 0 0 1 -1615 -200 )">
    <path d="M 1615 200  L 1695 200  L 1695 238  L 1615 238  L 1615 200  " fill-rule="nonzero" fill="#cccccc" stroke="none" />
    <path d="M 1618 203  L 1692 203  L 1692 235  L 1618 235  L 1618 203  " fill-rule="nonzero" fill="#ffffff" stroke="none" />
    <path d="M 1659.45 211.4  C 1657.854 211.4  1656.6 210.146  1656.6 208.55  C 1656.6 206.954  1657.854 205.7  1659.45 205.7  C 1661.046 205.7  1662.3 206.954  1662.3 208.55  C 1662.3 210.146  1661.046 211.4  1659.45 211.4  " fill-rule="nonzero" fill="#cccccc" stroke="none" />
    <path d="M 1619 234  L 1619 217.5  L 1637 210  L 1662.2 225.45  L 1676.6 214.5  L 1691 225.45  L 1691 234  L 1619 234  " fill-rule="nonzero" fill="#169bd5" stroke="none" />
  </g>
</svg>