<?xml version="1.0" encoding="utf-8"?>
<svg version="1.1" xmlns:xlink="http://www.w3.org/1999/xlink" width="13px" height="13px" xmlns="http://www.w3.org/2000/svg">
  <g transform="matrix(1 0 0 1 -1686 -194 )">
    <path d="M 12.5930014501953 6.49977514648437  C 12.5930014501953 3.13182861816406  9.86446140136719 0.401969462890625  6.49978264648438 0.401969462890625  C 3.13466919921875 0.401969462890625  0.406968579101563 3.13182861816406  0.406968579101563 6.49977514648437  C 0.406968579101563 9.86770668945313  3.13466919921875 12.5980155371094  6.49978264648438 12.5980155371094  C 9.86446140136719 12.5980155371094  12.5930014501953 9.86769168945312  12.5930014501953 6.49977514648437  Z M 10.1853188574219 6.49979014648438  C 10.1853188574219 6.73292707519531  10.0133554443359 6.92143926757812  9.80175891113281 6.92143926757812  C 9.79346953613281 6.92143926757812  9.78649925292969 6.92187397460937  9.77910926269531 6.92143926757812  L 3.15469562011719 6.91667250488281  C 3.13814684082031 6.91884602539063  3.12467098144531 6.91667250488281  3.10723780273438 6.91667250488281  C 2.89562626953125 6.91667250488281  2.72366287109375 6.73814354492187  2.72366287109375 6.505201484375  C 2.72366287109375 6.27294895507813  2.89564126953125 6.08421190917969  3.10723780273438 6.08421190917969  L 9.77648604980469 6.07853076171875  C 9.78561485351563 6.0780960546875  9.79258513671875 6.07853076171875  9.80175891113281 6.07853076171875  C 10.0133404589844 6.07853076171875  10.1853188574219 6.26749264648438  10.1853188574219 6.49979014648438  Z " fill-rule="nonzero" fill="#d9001b" stroke="none" transform="matrix(1 0 0 1 1686 194 )" />
  </g>
</svg>