<?xml version="1.0" encoding="utf-8"?>
<svg version="1.1" xmlns:xlink="http://www.w3.org/1999/xlink" width="80px" height="38px" xmlns="http://www.w3.org/2000/svg">
  <g transform="matrix(1 0 0 1 -1728 -200 )">
    <path d="M 1728 200  L 1808 200  L 1808 238  L 1728 238  L 1728 200  " fill-rule="nonzero" fill="#cccccc" stroke="none" />
    <path d="M 1731 203  L 1805 203  L 1805 235  L 1731 235  L 1731 203  " fill-rule="nonzero" fill="#ffffff" stroke="none" />
    <path d="M 1772.45 211.4  C 1770.854 211.4  1769.6 210.146  1769.6 208.55  C 1769.6 206.954  1770.854 205.7  1772.45 205.7  C 1774.046 205.7  1775.3 206.954  1775.3 208.55  C 1775.3 210.146  1774.046 211.4  1772.45 211.4  " fill-rule="nonzero" fill="#cccccc" stroke="none" />
    <path d="M 1732 234  L 1732 217.5  L 1750 210  L 1775.2 225.45  L 1789.6 214.5  L 1804 225.45  L 1804 234  L 1732 234  " fill-rule="nonzero" fill="#169bd5" stroke="none" />
  </g>
</svg>