<?xml version="1.0" encoding="utf-8"?>
<svg version="1.1" xmlns:xlink="http://www.w3.org/1999/xlink" width="80px" height="38px" xmlns="http://www.w3.org/2000/svg">
  <g transform="matrix(1 0 0 1 -1866 -200 )">
    <path d="M 1866 200  L 1946 200  L 1946 238  L 1866 238  L 1866 200  " fill-rule="nonzero" fill="#cccccc" stroke="none" />
    <path d="M 1869 203  L 1943 203  L 1943 235  L 1869 235  L 1869 203  " fill-rule="nonzero" fill="#ffffff" stroke="none" />
    <path d="M 1910.45 211.4  C 1908.854 211.4  1907.6 210.146  1907.6 208.55  C 1907.6 206.954  1908.854 205.7  1910.45 205.7  C 1912.046 205.7  1913.3 206.954  1913.3 208.55  C 1913.3 210.146  1912.046 211.4  1910.45 211.4  " fill-rule="nonzero" fill="#cccccc" stroke="none" />
    <path d="M 1870 234  L 1870 217.5  L 1888 210  L 1913.2 225.45  L 1927.6 214.5  L 1942 225.45  L 1942 234  L 1870 234  " fill-rule="nonzero" fill="#169bd5" stroke="none" />
  </g>
</svg>