<?xml version="1.0" encoding="utf-8"?>
<svg version="1.1" xmlns:xlink="http://www.w3.org/1999/xlink" width="80px" height="38px" xmlns="http://www.w3.org/2000/svg">
  <g transform="matrix(1 0 0 1 -2142 -200 )">
    <path d="M 2142 200  L 2222 200  L 2222 238  L 2142 238  L 2142 200  " fill-rule="nonzero" fill="#cccccc" stroke="none" />
    <path d="M 2145 203  L 2219 203  L 2219 235  L 2145 235  L 2145 203  " fill-rule="nonzero" fill="#ffffff" stroke="none" />
    <path d="M 2186.45 211.4  C 2184.854 211.4  2183.6 210.146  2183.6 208.55  C 2183.6 206.954  2184.854 205.7  2186.45 205.7  C 2188.046 205.7  2189.3 206.954  2189.3 208.55  C 2189.3 210.146  2188.046 211.4  2186.45 211.4  " fill-rule="nonzero" fill="#cccccc" stroke="none" />
    <path d="M 2146 234  L 2146 217.5  L 2164 210  L 2189.2 225.45  L 2203.6 214.5  L 2218 225.45  L 2218 234  L 2146 234  " fill-rule="nonzero" fill="#169bd5" stroke="none" />
  </g>
</svg>