<?xml version="1.0" encoding="utf-8"?>
<svg version="1.1" xmlns:xlink="http://www.w3.org/1999/xlink" width="80px" height="38px" xmlns="http://www.w3.org/2000/svg">
  <g transform="matrix(1 0 0 1 -2365 -200 )">
    <path d="M 2365 200  L 2445 200  L 2445 238  L 2365 238  L 2365 200  " fill-rule="nonzero" fill="#cccccc" stroke="none" />
    <path d="M 2368 203  L 2442 203  L 2442 235  L 2368 235  L 2368 203  " fill-rule="nonzero" fill="#ffffff" stroke="none" />
    <path d="M 2409.45 211.4  C 2407.854 211.4  2406.6 210.146  2406.6 208.55  C 2406.6 206.954  2407.854 205.7  2409.45 205.7  C 2411.046 205.7  2412.3 206.954  2412.3 208.55  C 2412.3 210.146  2411.046 211.4  2409.45 211.4  " fill-rule="nonzero" fill="#cccccc" stroke="none" />
    <path d="M 2369 234  L 2369 217.5  L 2387 210  L 2412.2 225.45  L 2426.6 214.5  L 2441 225.45  L 2441 234  L 2369 234  " fill-rule="nonzero" fill="#169bd5" stroke="none" />
  </g>
</svg>