<?xml version="1.0" encoding="utf-8"?>
<svg version="1.1" xmlns:xlink="http://www.w3.org/1999/xlink" width="80px" height="38px" xmlns="http://www.w3.org/2000/svg">
  <g transform="matrix(1 0 0 1 -2497 -200 )">
    <path d="M 2497 200  L 2577 200  L 2577 238  L 2497 238  L 2497 200  " fill-rule="nonzero" fill="#cccccc" stroke="none" />
    <path d="M 2500 203  L 2574 203  L 2574 235  L 2500 235  L 2500 203  " fill-rule="nonzero" fill="#ffffff" stroke="none" />
    <path d="M 2541.45 211.4  C 2539.854 211.4  2538.6 210.146  2538.6 208.55  C 2538.6 206.954  2539.854 205.7  2541.45 205.7  C 2543.046 205.7  2544.3 206.954  2544.3 208.55  C 2544.3 210.146  2543.046 211.4  2541.45 211.4  " fill-rule="nonzero" fill="#cccccc" stroke="none" />
    <path d="M 2501 234  L 2501 217.5  L 2519 210  L 2544.2 225.45  L 2558.6 214.5  L 2573 225.45  L 2573 234  L 2501 234  " fill-rule="nonzero" fill="#169bd5" stroke="none" />
  </g>
</svg>