<?xml version="1.0" encoding="utf-8"?>
<svg version="1.1" xmlns:xlink="http://www.w3.org/1999/xlink" width="80px" height="38px" xmlns="http://www.w3.org/2000/svg">
  <g transform="matrix(1 0 0 1 -2372 -200 )">
    <path d="M 2372 200  L 2452 200  L 2452 238  L 2372 238  L 2372 200  " fill-rule="nonzero" fill="#cccccc" stroke="none" />
    <path d="M 2375 203  L 2449 203  L 2449 235  L 2375 235  L 2375 203  " fill-rule="nonzero" fill="#ffffff" stroke="none" />
    <path d="M 2416.45 211.4  C 2414.854 211.4  2413.6 210.146  2413.6 208.55  C 2413.6 206.954  2414.854 205.7  2416.45 205.7  C 2418.046 205.7  2419.3 206.954  2419.3 208.55  C 2419.3 210.146  2418.046 211.4  2416.45 211.4  " fill-rule="nonzero" fill="#cccccc" stroke="none" />
    <path d="M 2376 234  L 2376 217.5  L 2394 210  L 2419.2 225.45  L 2433.6 214.5  L 2448 225.45  L 2448 234  L 2376 234  " fill-rule="nonzero" fill="#169bd5" stroke="none" />
  </g>
</svg>