<?xml version="1.0" encoding="utf-8"?>
<svg version="1.1" xmlns:xlink="http://www.w3.org/1999/xlink" width="80px" height="38px" xmlns="http://www.w3.org/2000/svg">
  <g transform="matrix(1 0 0 1 -1904 -200 )">
    <path d="M 1904 200  L 1984 200  L 1984 238  L 1904 238  L 1904 200  " fill-rule="nonzero" fill="#cccccc" stroke="none" />
    <path d="M 1907 203  L 1981 203  L 1981 235  L 1907 235  L 1907 203  " fill-rule="nonzero" fill="#ffffff" stroke="none" />
    <path d="M 1948.45 211.4  C 1946.854 211.4  1945.6 210.146  1945.6 208.55  C 1945.6 206.954  1946.854 205.7  1948.45 205.7  C 1950.046 205.7  1951.3 206.954  1951.3 208.55  C 1951.3 210.146  1950.046 211.4  1948.45 211.4  " fill-rule="nonzero" fill="#cccccc" stroke="none" />
    <path d="M 1908 234  L 1908 217.5  L 1926 210  L 1951.2 225.45  L 1965.6 214.5  L 1980 225.45  L 1980 234  L 1908 234  " fill-rule="nonzero" fill="#169bd5" stroke="none" />
  </g>
</svg>