<?xml version="1.0" encoding="utf-8"?>
<svg version="1.1" xmlns:xlink="http://www.w3.org/1999/xlink" width="18px" height="18px" xmlns="http://www.w3.org/2000/svg">
  <g transform="matrix(1 0 0 1 -345 -907 )">
    <path d="M 17.72625 4.80375  C 17.843125 4.478125  17.67375 4.12  17.34875 4.004375  C 17.023125 3.8875  16.665625 4.0575  16.55 4.3825  L 16.06625 5.736875  C 15.5 4.46125  14.605625 3.34  13.466875 2.49625  C 9.84625 -0.185  4.689375 0.5475  1.975 4.13  C 0.66125 5.86375  0.1075 8.000625  0.415625 10.14625  C 0.725 12.300625  1.865 14.204375  3.625625 15.5075  C 5.09875 16.5975  6.825 17.12375  8.536875 17.12375  C 11.0375 17.12375  13.50875 16.001875  15.11875 13.87625  C 15.83125 12.93625  16.319375 11.8825  16.568125 10.743125  C 16.641875 10.40625  16.42875 10.073125  16.09125 9.999375  C 15.755 9.926875  15.42125 10.138125  15.3475 10.47625  C 15.136875 11.436875  14.725 12.326875  14.1225 13.121875  C 11.82 16.159375  7.444375 16.77875  4.36875 14.503125  C 2.87875 13.4  1.914375 11.79  1.6525 9.96875  C 1.391875 8.15625  1.860625 6.350625  2.970625 4.885  C 5.2725 1.84625  9.64624999999999 1.224375  12.723125 3.50125  C 13.836875 4.32625  14.673125 5.46625  15.125 6.755625  L 12.976875 5.916875  C 12.65625 5.7925  12.293125 5.95  12.1675 6.271875  C 12.041875 6.59375  12.20125 6.955625  12.5225 7.08125  L 15.68375 8.315625  C 15.758125 8.344375  15.835 8.35875  15.910625 8.35875  C 15.92125 8.35875  15.930625 8.355  15.94125 8.354375  C 15.965 8.356875  15.98875 8.366875  16.0125 8.366875  C 16.26875 8.366875  16.51 8.2075  16.600625 7.951875  L 17.72625 4.80375  Z " fill-rule="nonzero" fill="#0000ff" stroke="none" transform="matrix(1 0 0 1 345 907 )" />
  </g>
</svg>