<?xml version="1.0" encoding="utf-8"?>
<svg version="1.1" xmlns:xlink="http://www.w3.org/1999/xlink" width="12px" height="12px" viewBox="148 131  12 12" xmlns="http://www.w3.org/2000/svg">
  <path d="M 154 131  C 157.36 131  160 133.64  160 137  C 160 140.36  157.36 143  154 143  C 150.64 143  148 140.36  148 137  C 148 133.64  150.64 131  154 131  Z " fill-rule="nonzero" fill="#ffffff" stroke="none" />
  <path d="M 154 131.5  C 157.08 131.5  159.5 133.92  159.5 137  C 159.5 140.08  157.08 142.5  154 142.5  C 150.92 142.5  148.5 140.08  148.5 137  C 148.5 133.92  150.92 131.5  154 131.5  Z " stroke-width="1" stroke="#797979" fill="none" />
  <path d="M 154 140  C 152.32 140  151 138.68  151 137  C 151 135.32  152.32 134  154 134  C 155.68 134  157 135.32  157 137  C 157 138.68  155.68 140  154 140  " fill-rule="nonzero" fill="#797979" stroke="none" />
</svg>