<?xml version="1.0" encoding="utf-8"?>
<svg version="1.1" xmlns:xlink="http://www.w3.org/1999/xlink" width="12px" height="12px" viewBox="148 207  12 12" xmlns="http://www.w3.org/2000/svg">
  <path d="M 154 207  C 157.36 207  160 209.64  160 213  C 160 216.36  157.36 219  154 219  C 150.64 219  148 216.36  148 213  C 148 209.64  150.64 207  154 207  Z " fill-rule="nonzero" fill="#f0f0f0" stroke="none" />
  <path d="M 154 207.5  C 157.08 207.5  159.5 209.92  159.5 213  C 159.5 216.08  157.08 218.5  154 218.5  C 150.92 218.5  148.5 216.08  148.5 213  C 148.5 209.92  150.92 207.5  154 207.5  Z " stroke-width="1" stroke="#797979" fill="none" />
  <path d="M 154 216  C 152.32 216  151 214.68  151 213  C 151 211.32  152.32 210  154 210  C 155.68 210  157 211.32  157 213  C 157 214.68  155.68 216  154 216  " fill-rule="nonzero" fill="#797979" stroke="none" />
</svg>