<?xml version="1.0" encoding="utf-8"?>
<svg version="1.1" xmlns:xlink="http://www.w3.org/1999/xlink" width="50px" height="50px" xmlns="http://www.w3.org/2000/svg">
  <g transform="matrix(1 0 0 1 -56 -72 )">
    <path d="M 56 72  L 106 72  L 106 122  L 56 122  L 56 72  " fill-rule="nonzero" fill="#cccccc" stroke="none" />
    <path d="M 60 76  L 102 76  L 102 118  L 60 118  L 60 76  " fill-rule="nonzero" fill="#ffffff" stroke="none" />
    <path d="M 85.75 87  C 83.65 87  82 85.35  82 83.25  C 82 81.15  83.65 79.5  85.75 79.5  C 87.85 79.5  89.5 81.15  89.5 83.25  C 89.5 85.35  87.85 87  85.75 87  " fill-rule="nonzero" fill="#cccccc" stroke="none" />
    <path d="M 62 117  L 62 95.55  L 71.75 85.8  L 85.4 93.6  L 93.2 91.65  L 101 93.6  L 101 117  L 62 117  " fill-rule="nonzero" fill="#169bd5" stroke="none" />
  </g>
</svg>