<?xml version="1.0" encoding="utf-8"?>
<svg version="1.1" xmlns:xlink="http://www.w3.org/1999/xlink" width="50px" height="50px" xmlns="http://www.w3.org/2000/svg">
  <g transform="matrix(1 0 0 1 -160 -357 )">
    <path d="M 160 357  L 210 357  L 210 407  L 160 407  L 160 357  " fill-rule="nonzero" fill="#cccccc" stroke="none" />
    <path d="M 164 361  L 206 361  L 206 403  L 164 403  L 164 361  " fill-rule="nonzero" fill="#ffffff" stroke="none" />
    <path d="M 189.75 372  C 187.65 372  186 370.35  186 368.25  C 186 366.15  187.65 364.5  189.75 364.5  C 191.85 364.5  193.5 366.15  193.5 368.25  C 193.5 370.35  191.85 372  189.75 372  " fill-rule="nonzero" fill="#cccccc" stroke="none" />
    <path d="M 166 402  L 166 380.55  L 175.75 370.8  L 189.4 378.6  L 197.2 376.65  L 205 378.6  L 205 402  L 166 402  " fill-rule="nonzero" fill="#169bd5" stroke="none" />
  </g>
</svg>