<?xml version="1.0" encoding="utf-8"?>
<svg version="1.1" xmlns:xlink="http://www.w3.org/1999/xlink" width="12px" height="12px" viewBox="318 173.5  12 12" xmlns="http://www.w3.org/2000/svg">
  <path d="M 324 173.5  C 327.36 173.5  330 176.14  330 179.5  C 330 182.86  327.36 185.5  324 185.5  C 320.64 185.5  318 182.86  318 179.5  C 318 176.14  320.64 173.5  324 173.5  Z " fill-rule="nonzero" fill="#f0f0f0" stroke="none" />
  <path d="M 324 174  C 327.08 174  329.5 176.42  329.5 179.5  C 329.5 182.58  327.08 185  324 185  C 320.92 185  318.5 182.58  318.5 179.5  C 318.5 176.42  320.92 174  324 174  Z " stroke-width="1" stroke="#797979" fill="none" />
  <path d="M 324 182.5  C 322.32 182.5  321 181.18  321 179.5  C 321 177.82  322.32 176.5  324 176.5  C 325.68 176.5  327 177.82  327 179.5  C 327 181.18  325.68 182.5  324 182.5  " fill-rule="nonzero" fill="#797979" stroke="none" />
</svg>