<?xml version="1.0" encoding="utf-8"?>
<svg version="1.1" xmlns:xlink="http://www.w3.org/1999/xlink" width="12px" height="12px" viewBox="304 173.5  12 12" xmlns="http://www.w3.org/2000/svg">
  <path d="M 310 173.5  C 313.36 173.5  316 176.14  316 179.5  C 316 182.86  313.36 185.5  310 185.5  C 306.64 185.5  304 182.86  304 179.5  C 304 176.14  306.64 173.5  310 173.5  Z " fill-rule="nonzero" fill="#f0f0f0" stroke="none" />
  <path d="M 310 174  C 313.08 174  315.5 176.42  315.5 179.5  C 315.5 182.58  313.08 185  310 185  C 306.92 185  304.5 182.58  304.5 179.5  C 304.5 176.42  306.92 174  310 174  Z " stroke-width="1" stroke="#797979" fill="none" />
  <path d="M 310 182.5  C 308.32 182.5  307 181.18  307 179.5  C 307 177.82  308.32 176.5  310 176.5  C 311.68 176.5  313 177.82  313 179.5  C 313 181.18  311.68 182.5  310 182.5  " fill-rule="nonzero" fill="#797979" stroke="none" />
</svg>