<?xml version="1.0" encoding="utf-8"?>
<svg version="1.1" xmlns:xlink="http://www.w3.org/1999/xlink" width="15px" height="15px" xmlns="http://www.w3.org/2000/svg">
  <g transform="matrix(1 0 0 1 -1254 -25 )">
    <path d="M 0.625000004882812 10  L 14.374875 10  C 14.7186250048828 9.99975  14.9998750048828 10.281  14.9998750048828 10.6247500048828  C 14.9998750048828 10.9685000097656  14.7186250048828 11.2497500097656  14.374875 11  L 2.131875 11  L 4.82374999511719 13.9335  C 5.06684566946353 14.1779315613603  5.06684566946353 14.5728184435225  4.82374999511719 14.8172500048828  C 4.57931843546359 15.0603456695169  4.18443156453641 15.0603456695169  3.94000000488281 14.8172500048828  L 0.182500004882812 11.0710000048828  C 0.0647819819062289 10.9532280486869  -0.00074093723815975 10.7931359678908  0.000625004882812497 10.6266250048828  C 0.000625004882812497 10.626  0 10.6253750097656  0 10.6247500048828  C 0 10.5953750097656  0.013125 10.56975  0.016875 10.5409999951172  C 0.024375 10.4903749951172  0.028125 10.4385  0.0475000048828125 10.3903750048828  C 0.141250004882813 10.1622500097656  0.364375004882813 9.99975  0.625000004882812 10  Z M 11.0599999951172 0.181999995117187  L 14.8174999951172 3.92875000488281  C 14.9350635207326 4.04662463613265  15.0005587863608 4.20664915112103  14.9993749951172 4.37312500488281  C 14.9993749951172 4.37375000976562  15 4.374375  15 4.37500000488281  C 15 4.404375  14.986875 4.43000000976562  14.9824999951172 4.45875  C 14.975625 4.51000000488281  14.971875 4.56124999511719  14.9518750048828 4.60937500488281  C 14.8587500097656 4.8375  14.6356250097656 4.999875  14.3749999951172 5  L 0.625125 5  C 0.281374995117187 4.999875  0.000124995117187499 4.718625  0.000124995117187499 4.37487499511719  C 0.000124995117187499 4.03112499023437  0.281374995117188 3.74987499023437  0.625125 4  L 12.8676250048828 4  L 10.1762500048828 1.06624999511719  C 9.93312500976563 0.823249995117187  9.93312500976563 0.425124990234375  10.1762500048828 0.181999995117187  C 10.4192500048828 -0.060500009765625  10.8167500048828 -0.060500009765625  11.0599999951172 0.181999995117187  Z " fill-rule="nonzero" fill="#0000ff" stroke="none" transform="matrix(1 0 0 1 1254 25 )" />
  </g>
</svg>