<?xml version="1.0" encoding="utf-8"?>
<svg version="1.1" xmlns:xlink="http://www.w3.org/1999/xlink" width="15px" height="15px" xmlns="http://www.w3.org/2000/svg">
  <g transform="matrix(1 0 0 1 -2322 -118 )">
    <path d="M 14.3115234375 7.5  C 14.3115234375 11.2619384765625  11.2619384765625 14.3115234375  7.5 14.3115234375  C 3.7380615234375 14.3115234375  0.6884765625 11.2619384765625  0.6884765625 7.5  C 0.6884765625 3.7380615234375  3.7380615234375 0.6884765625  7.5 0.6884765625  C 11.2619384765625 0.6884765625  14.3115234375 3.7380615234375  14.3115234375 7.5  Z M 13.4600830078125 7.5  C 13.4600830078125 4.2082763671875  10.7917236328125 1.5399169921875  7.5 1.5399169921875  C 4.2082763671875 1.5399169921875  1.5399169921875 4.2082763671875  1.5399169921875 7.5  C 1.5399169921875 10.7917236328125  4.2082763671875 13.4600830078125  7.5 13.4600830078125  C 10.7917236328125 13.4600830078125  13.4600830078125 10.7917236328125  13.4600830078125 7.5  Z M 10.6910888671875 7.5  C 10.6910888671875 7.7296142578125  10.50498046875 7.91572265625  10.2753662109375 7.91572265625  L 4.7246337890625 7.91572265625  C 4.49501953125 7.91572265625  4.3089111328125 7.7296142578125  4.3089111328125 7.5  C 4.3089111328125 7.2703857421875  4.49501953125 7.08427734375  4.7246337890625 7.08427734375  L 10.2753662109375 7.08427734375  C 10.50498046875 7.08427734375  10.6910888671875 7.2703857421875  10.6910888671875 7.5  Z " fill-rule="nonzero" fill="#d9001b" stroke="none" transform="matrix(1 0 0 1 2322 118 )" />
  </g>
</svg>