<?xml version="1.0" encoding="utf-8"?>
<svg version="1.1" xmlns:xlink="http://www.w3.org/1999/xlink" width="12px" height="12px" viewBox="402 266  12 12" xmlns="http://www.w3.org/2000/svg">
  <path d="M 408 266  C 411.36 266  414 268.64  414 272  C 414 275.36  411.36 278  408 278  C 404.64 278  402 275.36  402 272  C 402 268.64  404.64 266  408 266  Z " fill-rule="nonzero" fill="#ffffff" stroke="none" />
  <path d="M 408 266.5  C 411.08 266.5  413.5 268.92  413.5 272  C 413.5 275.08  411.08 277.5  408 277.5  C 404.92 277.5  402.5 275.08  402.5 272  C 402.5 268.92  404.92 266.5  408 266.5  Z " stroke-width="1" stroke="#797979" fill="none" />
  <path d="M 408 275  C 406.32 275  405 273.68  405 272  C 405 270.32  406.32 269  408 269  C 409.68 269  411 270.32  411 272  C 411 273.68  409.68 275  408 275  " fill-rule="nonzero" fill="#797979" stroke="none" />
</svg>