<?xml version="1.0" encoding="utf-8"?>
<svg version="1.1" xmlns:xlink="http://www.w3.org/1999/xlink" width="12px" height="12px" viewBox="293 266  12 12" xmlns="http://www.w3.org/2000/svg">
  <path d="M 299 266  C 302.36 266  305 268.64  305 272  C 305 275.36  302.36 278  299 278  C 295.64 278  293 275.36  293 272  C 293 268.64  295.64 266  299 266  Z " fill-rule="nonzero" fill="#f0f0f0" stroke="none" />
  <path d="M 299 266.5  C 302.08 266.5  304.5 268.92  304.5 272  C 304.5 275.08  302.08 277.5  299 277.5  C 295.92 277.5  293.5 275.08  293.5 272  C 293.5 268.92  295.92 266.5  299 266.5  Z " stroke-width="1" stroke="#797979" fill="none" />
  <path d="M 299 275  C 297.32 275  296 273.68  296 272  C 296 270.32  297.32 269  299 269  C 300.68 269  302 270.32  302 272  C 302 273.68  300.68 275  299 275  " fill-rule="nonzero" fill="#797979" stroke="none" />
</svg>