<?xml version="1.0" encoding="utf-8"?>
<svg version="1.1" xmlns:xlink="http://www.w3.org/1999/xlink" width="12px" height="12px" viewBox="1516 266  12 12" xmlns="http://www.w3.org/2000/svg">
  <path d="M 1522 266  C 1525.36 266  1528 268.64  1528 272  C 1528 275.36  1525.36 278  1522 278  C 1518.64 278  1516 275.36  1516 272  C 1516 268.64  1518.64 266  1522 266  Z " fill-rule="nonzero" fill="#f0f0f0" stroke="none" />
  <path d="M 1522 266.5  C 1525.08 266.5  1527.5 268.92  1527.5 272  C 1527.5 275.08  1525.08 277.5  1522 277.5  C 1518.92 277.5  1516.5 275.08  1516.5 272  C 1516.5 268.92  1518.92 266.5  1522 266.5  Z " stroke-width="1" stroke="#797979" fill="none" />
  <path d="M 1522 275  C 1520.32 275  1519 273.68  1519 272  C 1519 270.32  1520.32 269  1522 269  C 1523.68 269  1525 270.32  1525 272  C 1525 273.68  1523.68 275  1522 275  " fill-rule="nonzero" fill="#797979" stroke="none" />
</svg>