<?xml version="1.0" encoding="utf-8"?>
<svg version="1.1" xmlns:xlink="http://www.w3.org/1999/xlink" width="12px" height="12px" viewBox="2443 266  12 12" xmlns="http://www.w3.org/2000/svg">
  <path d="M 2449 266  C 2452.36 266  2455 268.64  2455 272  C 2455 275.36  2452.36 278  2449 278  C 2445.64 278  2443 275.36  2443 272  C 2443 268.64  2445.64 266  2449 266  Z " fill-rule="nonzero" fill="#f0f0f0" stroke="none" />
  <path d="M 2449 266.5  C 2452.08 266.5  2454.5 268.92  2454.5 272  C 2454.5 275.08  2452.08 277.5  2449 277.5  C 2445.92 277.5  2443.5 275.08  2443.5 272  C 2443.5 268.92  2445.92 266.5  2449 266.5  Z " stroke-width="1" stroke="#797979" fill="none" />
  <path d="M 2449 275  C 2447.32 275  2446 273.68  2446 272  C 2446 270.32  2447.32 269  2449 269  C 2450.68 269  2452 270.32  2452 272  C 2452 273.68  2450.68 275  2449 275  " fill-rule="nonzero" fill="#797979" stroke="none" />
</svg>