<?xml version="1.0" encoding="utf-8"?>
<svg version="1.1" xmlns:xlink="http://www.w3.org/1999/xlink" width="12px" height="12px" viewBox="2652 266  12 12" xmlns="http://www.w3.org/2000/svg">
  <path d="M 2658 266  C 2661.36 266  2664 268.64  2664 272  C 2664 275.36  2661.36 278  2658 278  C 2654.64 278  2652 275.36  2652 272  C 2652 268.64  2654.64 266  2658 266  Z " fill-rule="nonzero" fill="#ffffff" stroke="none" />
  <path d="M 2658 266.5  C 2661.08 266.5  2663.5 268.92  2663.5 272  C 2663.5 275.08  2661.08 277.5  2658 277.5  C 2654.92 277.5  2652.5 275.08  2652.5 272  C 2652.5 268.92  2654.92 266.5  2658 266.5  Z " stroke-width="1" stroke="#797979" fill="none" />
  <path d="M 2658 275  C 2656.32 275  2655 273.68  2655 272  C 2655 270.32  2656.32 269  2658 269  C 2659.68 269  2661 270.32  2661 272  C 2661 273.68  2659.68 275  2658 275  " fill-rule="nonzero" fill="#797979" stroke="none" />
</svg>