<?xml version="1.0" encoding="utf-8"?>
<svg version="1.1" xmlns:xlink="http://www.w3.org/1999/xlink" width="12px" height="12px" viewBox="2543 266  12 12" xmlns="http://www.w3.org/2000/svg">
  <path d="M 2549 266  C 2552.36 266  2555 268.64  2555 272  C 2555 275.36  2552.36 278  2549 278  C 2545.64 278  2543 275.36  2543 272  C 2543 268.64  2545.64 266  2549 266  Z " fill-rule="nonzero" fill="#f0f0f0" stroke="none" />
  <path d="M 2549 266.5  C 2552.08 266.5  2554.5 268.92  2554.5 272  C 2554.5 275.08  2552.08 277.5  2549 277.5  C 2545.92 277.5  2543.5 275.08  2543.5 272  C 2543.5 268.92  2545.92 266.5  2549 266.5  Z " stroke-width="1" stroke="#797979" fill="none" />
  <path d="M 2549 275  C 2547.32 275  2546 273.68  2546 272  C 2546 270.32  2547.32 269  2549 269  C 2550.68 269  2552 270.32  2552 272  C 2552 273.68  2550.68 275  2549 275  " fill-rule="nonzero" fill="#797979" stroke="none" />
</svg>