<?xml version="1.0" encoding="utf-8"?>
<svg version="1.1" xmlns:xlink="http://www.w3.org/1999/xlink" width="110px" height="99px" xmlns="http://www.w3.org/2000/svg">
  <g transform="matrix(1 0 0 1 -210 -541 )">
    <path d="M 210 541  L 320 541  L 320 640  L 210 640  L 210 541  " fill-rule="nonzero" fill="#cccccc" stroke="none" />
    <path d="M 217 548  L 313 548  L 313 633  L 217 633  L 217 548  " fill-rule="nonzero" fill="#ffffff" stroke="none" />
    <path d="M 274.625 570.7  C 270.467 570.7  267.2 567.433  267.2 563.275  C 267.2 559.117  270.467 555.85  274.625 555.85  C 278.783 555.85  282.05 559.117  282.05 563.275  C 282.05 567.433  278.783 570.7  274.625 570.7  " fill-rule="nonzero" fill="#cccccc" stroke="none" />
    <path d="M 220 631  L 220 587  L 242.75 567  L 274.6 587.8  L 292.8 579  L 311 587.8  L 311 631  L 220 631  " fill-rule="nonzero" fill="#169bd5" stroke="none" />
  </g>
</svg>