<?xml version="1.0" encoding="utf-8"?>
<svg version="1.1" xmlns:xlink="http://www.w3.org/1999/xlink" width="12px" height="12px" viewBox="270 465  12 12" xmlns="http://www.w3.org/2000/svg">
  <path d="M 276 465  C 279.36 465  282 467.64  282 471  C 282 474.36  279.36 477  276 477  C 272.64 477  270 474.36  270 471  C 270 467.64  272.64 465  276 465  Z " fill-rule="nonzero" fill="#ffffff" stroke="none" />
  <path d="M 276 465.5  C 279.08 465.5  281.5 467.92  281.5 471  C 281.5 474.08  279.08 476.5  276 476.5  C 272.92 476.5  270.5 474.08  270.5 471  C 270.5 467.92  272.92 465.5  276 465.5  Z " stroke-width="1" stroke="#797979" fill="none" />
  <path d="M 276 474  C 274.32 474  273 472.68  273 471  C 273 469.32  274.32 468  276 468  C 277.68 468  279 469.32  279 471  C 279 472.68  277.68 474  276 474  " fill-rule="nonzero" fill="#797979" stroke="none" />
</svg>