<?xml version="1.0" encoding="utf-8"?>
<svg version="1.1" xmlns:xlink="http://www.w3.org/1999/xlink" width="12px" height="12px" viewBox="190 437  12 12" xmlns="http://www.w3.org/2000/svg">
  <path d="M 196 437  C 199.36 437  202 439.64  202 443  C 202 446.36  199.36 449  196 449  C 192.64 449  190 446.36  190 443  C 190 439.64  192.64 437  196 437  Z " fill-rule="nonzero" fill="#f0f0f0" stroke="none" />
  <path d="M 196 437.5  C 199.08 437.5  201.5 439.92  201.5 443  C 201.5 446.08  199.08 448.5  196 448.5  C 192.92 448.5  190.5 446.08  190.5 443  C 190.5 439.92  192.92 437.5  196 437.5  Z " stroke-width="1" stroke="#797979" fill="none" />
  <path d="M 196 446  C 194.32 446  193 444.68  193 443  C 193 441.32  194.32 440  196 440  C 197.68 440  199 441.32  199 443  C 199 444.68  197.68 446  196 446  " fill-rule="nonzero" fill="#797979" stroke="none" />
</svg>