<?xml version="1.0" encoding="utf-8"?>
<svg version="1.1" xmlns:xlink="http://www.w3.org/1999/xlink" width="12px" height="12px" viewBox="268 437  12 12" xmlns="http://www.w3.org/2000/svg">
  <path d="M 274 437  C 277.36 437  280 439.64  280 443  C 280 446.36  277.36 449  274 449  C 270.64 449  268 446.36  268 443  C 268 439.64  270.64 437  274 437  Z " fill-rule="nonzero" fill="#ffffff" stroke="none" />
  <path d="M 274 437.5  C 277.08 437.5  279.5 439.92  279.5 443  C 279.5 446.08  277.08 448.5  274 448.5  C 270.92 448.5  268.5 446.08  268.5 443  C 268.5 439.92  270.92 437.5  274 437.5  Z " stroke-width="1" stroke="#797979" fill="none" />
  <path d="M 274 446  C 272.32 446  271 444.68  271 443  C 271 441.32  272.32 440  274 440  C 275.68 440  277 441.32  277 443  C 277 444.68  275.68 446  274 446  " fill-rule="nonzero" fill="#797979" stroke="none" />
</svg>